<svg width="19" height="25" viewBox="0 0 19 25" fill="none" xmlns="http://www.w3.org/2000/svg">
<g clip-path="url(#clip0)">
<path d="M3 11L17.5 10.5V23L4 24L3 11Z" fill="white"/>
<path d="M6.92035 6.86324C4.01788 7.07777 1.55045 7.27507 1.43444 7.29818C1.10917 7.35612 0.81327 7.57652 0.674131 7.86661L0.552246 8.12185L0.563994 14.2051L0.581249 20.2884L0.767013 20.6654C0.871643 20.8741 1.57982 21.8485 2.35188 22.8515C3.87874 24.8289 3.98888 24.9393 4.5693 24.9972C4.73781 25.0145 6.00328 24.9565 7.37338 24.8755C8.74936 24.7886 10.955 24.6551 12.2789 24.5799C17.9329 24.237 17.6425 24.266 17.9674 23.9876C18.3738 23.6513 18.3448 24.2022 18.3621 16.8086C18.3738 10.5397 18.368 10.1282 18.2751 9.93679C18.165 9.72225 17.9674 9.57153 15.3899 7.76209C13.6659 6.55592 13.544 6.49211 12.7716 6.48037C12.4525 6.469 9.81695 6.64283 6.92035 6.86324ZM13.4452 7.65757C13.689 7.76759 15.4714 9.0086 15.7324 9.24661C15.8022 9.31628 15.8253 9.37423 15.7904 9.40907C15.7093 9.47875 4.67907 10.1341 4.36004 10.0875C4.21503 10.0644 4.00026 9.9775 3.87838 9.89608C3.37322 9.55393 2.11949 8.52745 2.11949 8.45227C2.11949 8.25497 2.07874 8.25497 6.99598 7.90144C7.93655 7.83763 9.48067 7.72175 10.4212 7.6462C12.4584 7.48374 13.0682 7.48961 13.4452 7.65757ZM16.9516 10.8298C17.0327 10.9108 17.1025 11.0674 17.1256 11.2181C17.1429 11.3575 17.1546 13.9554 17.1429 16.9824C17.1256 22.1782 17.1198 22.5031 17.021 22.6538C16.963 22.7466 16.847 22.8453 16.7596 22.8743C16.5162 22.9729 4.95808 23.6282 4.72019 23.5586C4.61005 23.5296 4.4588 23.4368 4.37766 23.3558L4.23816 23.205L4.2209 17.6033C4.20915 13.6716 4.2209 11.9318 4.26753 11.7752C4.3024 11.6593 4.38941 11.52 4.46504 11.4737C4.56967 11.4041 5.25472 11.3461 7.61165 11.2071C9.26627 11.1144 11.8262 10.9578 13.2951 10.8708C16.789 10.6559 16.7776 10.6559 16.9516 10.8298Z" fill="black"/>
<path d="M4.115 10.4724L2.12643 8.45574L1.83643 8.2088L3.90786 7.79723L8.71358 7.38567H13.5193L16.295 9.64928L12.525 9.97853L4.115 10.4724Z" fill="black" stroke="black"/>
<path d="M7.59069 6.95093L6.37943 3.52098C6.30421 3.30797 6.04882 3.22032 5.85818 3.34207L4.43113 4.25349C4.2405 4.37525 4.21476 4.64246 4.3786 4.79886L7.0169 7.3174C7.28365 7.57204 7.71315 7.29773 7.59069 6.95093Z" fill="white" stroke="black" stroke-width="1.3" stroke-linecap="round" stroke-linejoin="round"/>
<path d="M8.79259 7.42511L11.0656 0.988628C11.1408 0.775626 11.3962 0.687969 11.5868 0.809724L14.2647 2.52005C14.4554 2.6418 14.4811 2.90901 14.3173 3.06541L9.36638 7.79157C9.09962 8.04622 8.67012 7.7719 8.79259 7.42511Z" fill="white" stroke="black" stroke-width="1.3" stroke-linecap="round" stroke-linejoin="round"/>
<path d="M7.77078 13.333C7.87541 13.275 8.39195 13.2171 9.33252 13.1533C9.47306 13.1436 9.60931 13.1346 9.73819 13.1264V15.6059V18.2794C9.73819 20.7731 9.74406 20.9528 9.84282 20.9818C9.89495 20.9935 10.1446 21.0515 10.3942 21.1094C10.6384 21.1674 10.8414 21.237 10.8414 21.2602C10.8414 21.2891 10.801 21.3878 10.7544 21.4806C10.5976 21.7879 10.4295 21.8286 8.93749 21.9155C8.18306 21.9617 7.52701 22.0024 7.49213 22.0024C7.39925 22.0024 7.39337 21.8227 7.48626 21.6254C7.53839 21.5095 7.64302 21.4516 7.95067 21.3588L8.34532 21.237V14.1159H8.10155C7.63714 14.1159 7.4165 14.0521 7.4165 13.9304C7.4165 13.7272 7.60227 13.4199 7.77078 13.333Z" fill="black"/>
<path d="M12.6321 13.377C12.1454 13.1351 11.5766 13.0345 10.8748 13.0428C10.1627 13.0512 9.0822 13.209 9.0822 13.209L9.17404 14.544C9.17404 14.544 10.2051 14.308 10.8748 14.3226C11.4155 14.3345 11.8739 14.37 12.2072 14.6678C12.557 14.9803 12.7769 15.4124 12.7072 15.9178C12.6453 16.3665 12.3867 16.6886 12.0405 16.9386C11.5861 17.2669 10.8599 17.3977 10.8599 17.3977L9.15961 17.6475L9.15353 18.9739L10.8543 18.7109C10.8543 18.7109 12.6038 18.3281 13.1864 17.8136C13.7732 17.295 14.0405 16.7511 14.103 15.9803C14.1489 15.4145 14.0193 14.8151 13.7564 14.385C13.4977 13.9549 13.1229 13.6189 12.6321 13.377Z" fill="black" stroke="black" stroke-width="0.2"/>
</g>
<defs>
<clipPath id="clip0">
<rect width="19" height="25" fill="white"/>
</clipPath>
</defs>
</svg>
