<svg width="24" height="24" viewBox="0 0 24 24" fill="none" xmlns="http://www.w3.org/2000/svg">
<path d="M4.64981 7.19974C4.64815 7.71479 4.85095 8.20944 5.21368 8.5751C5.57647 8.94081 6.06958 9.14758 6.58471 9.14999H6.58541H17.3998C18.4674 9.14999 19.3498 8.27689 19.3498 7.19999V2.99999C19.3498 2.58556 19.0111 2.24999 18.5998 2.24999C18.1886 2.24999 17.8498 2.58556 17.8498 2.99999V7.19999C17.8498 7.44696 17.646 7.64999 17.3998 7.64999H6.58541C6.34083 7.64999 6.14021 7.44853 6.14021 7.19999V2.99999C6.14021 2.58713 5.80783 2.24999 5.39501 2.24999C4.9822 2.24999 4.64981 2.58713 4.64981 2.99999V7.19974ZM4.64981 7.19974C4.64982 7.19966 4.64982 7.19957 4.64982 7.19949L4.79981 7.19999H4.64981V7.19974Z" fill="#939393" stroke="#939393" stroke-width="0.3"/>
<path d="M3.6 11.4C3.44087 11.4 3.28826 11.4632 3.17574 11.5757C3.06321 11.6883 3 11.8409 3 12C3 12.1591 3.06321 12.3117 3.17574 12.4243C3.28826 12.5368 3.44087 12.6 3.6 12.6H5.04C5.19913 12.6 5.35174 12.5368 5.46426 12.4243C5.57679 12.3117 5.64 12.1591 5.64 12C5.64 11.8409 5.57679 11.6883 5.46426 11.5757C5.35174 11.4632 5.19913 11.4 5.04 11.4H3.6Z" fill="#939393"/>
<path d="M7.43984 11.4C7.28071 11.4 7.1281 11.4632 7.01558 11.5757C6.90306 11.6883 6.83984 11.8409 6.83984 12C6.83984 12.1591 6.90306 12.3117 7.01558 12.4243C7.1281 12.5368 7.28071 12.6 7.43984 12.6H8.87984C9.03897 12.6 9.19158 12.5368 9.30411 12.4243C9.41663 12.3117 9.47984 12.1591 9.47984 12C9.47984 11.8409 9.41663 11.6883 9.30411 11.5757C9.19158 11.4632 9.03897 11.4 8.87984 11.4H7.43984Z" fill="#939393"/>
<path d="M10.6802 12C10.6802 11.8409 10.7434 11.6883 10.8559 11.5757C10.9684 11.4632 11.121 11.4 11.2802 11.4H12.7202C12.8793 11.4 13.0319 11.4632 13.1444 11.5757C13.257 11.6883 13.3202 11.8409 13.3202 12C13.3202 12.1591 13.257 12.3117 13.1444 12.4243C13.0319 12.5368 12.8793 12.6 12.7202 12.6H11.2802C11.121 12.6 10.9684 12.5368 10.8559 12.4243C10.7434 12.3117 10.6802 12.1591 10.6802 12Z" fill="#939393"/>
<path d="M15.12 11.4C14.9609 11.4 14.8083 11.4632 14.6958 11.5757C14.5832 11.6883 14.52 11.8409 14.52 12C14.52 12.1591 14.5832 12.3117 14.6958 12.4243C14.8083 12.5368 14.9609 12.6 15.12 12.6H16.56C16.7192 12.6 16.8718 12.5368 16.9843 12.4243C17.0968 12.3117 17.16 12.1591 17.16 12C17.16 11.8409 17.0968 11.6883 16.9843 11.5757C16.8718 11.4632 16.7192 11.4 16.56 11.4H15.12Z" fill="#939393"/>
<path d="M18.3599 12C18.3599 11.8409 18.4231 11.6883 18.5356 11.5757C18.6481 11.4632 18.8007 11.4 18.9599 11.4H20.3999C20.559 11.4 20.7116 11.4632 20.8241 11.5757C20.9366 11.6883 20.9999 11.8409 20.9999 12C20.9999 12.1591 20.9366 12.3117 20.8241 12.4243C20.7116 12.5368 20.559 12.6 20.3999 12.6H18.9599C18.8007 12.6 18.6481 12.5368 18.5356 12.4243C18.4231 12.3117 18.3599 12.1591 18.3599 12Z" fill="#939393"/>
<path d="M4.64981 20.9997C4.64946 21.0978 4.6684 21.195 4.70557 21.2857C4.74277 21.3766 4.79751 21.4592 4.86665 21.5289C4.93579 21.5986 5.01799 21.654 5.10854 21.6919C5.1991 21.7299 5.29623 21.7496 5.39441 21.75H5.39501C5.80783 21.75 6.14021 21.4129 6.14021 21L6.14021 16.8L6.14021 16.7997C6.13997 16.681 6.18678 16.567 6.27039 16.4827C6.3539 16.3985 6.46734 16.3508 6.58591 16.35H17.3998C17.646 16.35 17.8498 16.553 17.8498 16.8L17.8498 21L17.8498 21.0003C17.8502 21.199 17.9293 21.3895 18.0698 21.53C18.2103 21.6705 18.4008 21.7496 18.5995 21.75H18.5998C19.0111 21.75 19.3498 21.4144 19.3498 21V16.8C19.3498 15.7231 18.4674 14.85 17.3998 14.85H6.58541C5.51626 14.85 4.64981 15.7247 4.64981 16.8V20.9997ZM4.64981 20.9997C4.64981 20.9996 4.64981 20.9995 4.64981 20.9994L4.79981 21M4.64981 20.9997V21H4.79981M4.79981 21C4.79949 21.0785 4.81464 21.1562 4.84438 21.2289C4.87412 21.3015 4.91787 21.3676 4.97314 21.4233C5.02841 21.479 5.09412 21.5233 5.1665 21.5536C5.23888 21.5839 5.31653 21.5997 5.39501 21.6H18.5998C18.9286 21.6 19.1998 21.3312 19.1998 21V16.8C19.1998 15.8064 18.385 15 17.3998 15H6.58541C5.60021 15 4.79981 15.8064 4.79981 16.8V21Z" fill="#939393" stroke="#939393" stroke-width="0.3"/>
</svg>
