<svg width="24" height="24" viewBox="0 0 24 24" fill="none" xmlns="http://www.w3.org/2000/svg">
<path d="M2 2H4.77778V4.22222H2V2ZM6.44444 2H9.22222V4.22222H6.44444V2ZM9.22222 19.7778H6.44444V22H9.22222V19.7778ZM10.8889 19.7778H13.6667V22H10.8889V19.7778ZM4.22222 6.44444H2V9.22222H4.22222V6.44444ZM19.7778 6.44444H22V9.22222H19.7778V6.44444ZM22 10.8889H19.7778V13.6667H22V10.8889ZM2 10.8889H4.22222V13.6667H2V10.8889ZM4.22222 15.3333H2V18.1111H4.22222V15.3333ZM17.5556 15.3333H19.7778V17.5556H22V19.7778H19.7778V22H17.5556V19.7778H15.3333V17.5556H17.5556V15.3333ZM4.77778 19.7778H2V22H4.77778V19.7778ZM10.8889 2H13.6667V4.22222H10.8889V2ZM18.1111 2H15.3333V4.22222H18.1111V2ZM22 2H19.7778V4.77778H22V2Z" fill="#939393"/>
</svg>
